{"title":"Ozombie.2012.BDRip.XVID.AC3.HQ.Hive-CM8","uid":7287960,"size":1416442610,"categoryP":"video","categoryS":"movies","magnet":"?xt=urn:btih:312c802af3f5a0f4cb72fd9cfc932753a74e4b62&amp;dn=Ozombie.2012.BDRip.XVID.AC3.HQ.Hive-CM8&amp;tr=udp%3A%2F%2Ftracker.openbittorrent.com%3A80&amp;tr=udp%3A%2F%2Fopen.demonii.com%3A1337&amp;tr=udp%3A%2F%2Ftracker.coppersurfer.tk%3A6969&amp;tr=udp%3A%2F%2Fexodus.desync.com%3A6969","seeders":0,"leechers":1,"uploader":"crazy-torrent","files":2,"time":1337639690,"description":" &lt;a href=&quot; http://www.scenespeeds.com/&quot; rel=&quot;nofollow&quot; target=&quot;_NEW&quot;&gt; http://www.scenespeeds.com/&lt;/a&gt;\t\n\n\n\nGeneral\nComplete name: Ozombie.2012.BDRip.XVID.AC3.HQ.Hive-CM8.avi\nFormat: AVI\nFormat/Info: Audio Video Interleave\nFile size: 1.32 GiB\nDuration: 1h 30mn\nOverall bit rate: 2 092 Kbps\nWriting application: Nandub v1.0rc2\nWriting library: Nandub build 1853/release\n\nVideo\nID: 0\nFormat: MPEG-4 Visual\nFormat profile: Advanced Simple@L5\nFormat settings, BVOP: 1\nFormat settings, QPel: Yes\nFormat settings, GMC: No warppoints\nFormat settings, Matrix: Default (H.263)\nMuxing mode: Packed bitstream\nCodec ID: XVID\nCodec ID/Hint: XviD\nDuration: 1h 30mn\nBit rate: 1 698 Kbps\nWidth: 720 pixels\nHeight: 400 pixels\nDisplay aspect ratio: 16:9\nFrame rate: 25.000 fps\nColor space: YUV\nChroma subsampling: 4:2:0\nBit depth: 8 bits\nScan type: Progressive\nCompression mode: Lossy\nBits/(Pixel*Frame): 0.236\nStream size: 1.07 GiB (81%)\nWriting library: XviD 1.2.1 (UTC 2008-12-04)\n\nAudio\nID: 1\nFormat: AC-3\nFormat/Info: Audio Coding 3\nMode extension: CM (complete main)\nCodec ID: 2000\nDuration: 1h 30mn\nBit rate mode: Constant\nBit rate: 384 Kbps\nChannel(s): 6 channels\nChannel positions: Front: L C R, Side: L R, LFE\nSampling rate: 48.0 KHz\nBit depth: 16 bits\nCompression mode: Lossy\nStream size: 248 MiB (18%)\nAlignment: Split accross interleaves\nInterleave, duration: 40 ms (1.00 video frame)\nInterleave, preload duration: 500 ms\n\nPlot:\nOsama Bin Laden has returned from his watery grave and is making an army of zombie terrorists!\n\nCast:\nCorey Sevier ... Chip\nEve Mauro ... Dusty\nJasen Wade ... Derek\nDanielle Chuchran ... Tomboy \n\n\n &lt;a href=&quot; http://www.scenespeeds.com/&quot; rel=&quot;nofollow&quot; target=&quot;_NEW&quot;&gt; http://www.scenespeeds.com/&lt;/a&gt;\t","torrent":{"xt":"urn:btih:312c802af3f5a0f4cb72fd9cfc932753a74e4b62","amp;dn":"Ozombie.2012.BDRip.XVID.AC3.HQ.Hive-CM8","amp;tr":["udp%3A%2F%2Ftracker.openbittorrent.com%3A80","udp%3A%2F%2Fopen.demonii.com%3A1337","udp%3A%2F%2Ftracker.coppersurfer.tk%3A6969","udp%3A%2F%2Fexodus.desync.com%3A6969"],"infoHash":"312c802af3f5a0f4cb72fd9cfc932753a74e4b62","infoHashBuffer":{"type":"Buffer","data":[49,44,128,42,243,245,160,244,203,114,253,156,252,147,39,83,167,78,75,98]},"announce":[],"urlList":[]}}